<svg width="334" height="168" viewBox="0 0 334 168" fill="none" xmlns="http://www.w3.org/2000/svg">
<g filter="url(#filter0_d_3_47)">
<path d="M161 0C199.309 0 234.905 7.61855 263.785 20.7021C292.522 33.7208 315.424 52.5469 326.962 75.5098L329.218 80L326.962 84.4902C315.424 107.453 292.522 126.279 263.785 139.298C234.905 152.381 199.309 160 161 160V140C196.765 140 229.506 132.871 255.532 121.08C279.452 110.244 297.026 95.7977 306.602 80C297.026 64.2023 279.452 49.7564 255.532 38.9199C229.506 27.1295 196.765 20 161 20V0Z" fill="#23D300"/>
</g>
<g filter="url(#filter1_d_3_47)">
<path d="M161 48.0059C181.48 48.2735 198 64.9563 198 85.5C198 106.044 181.48 122.726 161 122.993V48.0059Z" fill="#146604"/>
</g>
<g filter="url(#filter2_d_3_47)">
<path d="M161 70C169.284 70 176 76.7157 176 85C176 93.2843 169.284 100 161 100V70Z" fill="#1E1E1E"/>
</g>
<g filter="url(#filter3_d_3_47)">
<rect x="117" width="38" height="38" rx="5" fill="#23D300"/>
</g>
<g filter="url(#filter4_d_3_47)">
<rect x="80" y="18" width="31" height="42" rx="5" fill="#23D300"/>
</g>
<g filter="url(#filter5_d_3_47)">
<rect x="107" y="108" width="48" height="52" rx="5" fill="#146604"/>
</g>
<g filter="url(#filter6_d_3_47)">
<rect x="77" y="108" width="24" height="35" rx="5" fill="#23D300"/>
</g>
<g filter="url(#filter7_d_3_47)">
<rect x="40" y="29" width="31" height="35" rx="5" fill="#146604"/>
</g>
<g filter="url(#filter8_d_3_47)">
<rect x="40" y="105" width="31" height="18" rx="5" fill="#1E1E1E"/>
</g>
<g filter="url(#filter9_d_3_47)">
<rect x="22" y="105" width="13" height="18" rx="5" fill="#23D300"/>
</g>
<g filter="url(#filter10_d_3_47)">
<rect x="4" y="76" width="13" height="18" rx="5" fill="#146604"/>
</g>
<g filter="url(#filter11_d_3_47)">
<rect x="22" y="48" width="13" height="46" rx="5" fill="#23D300"/>
</g>
<g filter="url(#filter12_d_3_47)">
<rect x="117" y="48" width="38" height="12" rx="5" fill="#1E1E1E"/>
</g>
<path d="M63.044 97.324C61.556 97.324 60.176 97.024 58.904 96.424C57.656 95.824 56.66 95.008 55.916 93.976C55.172 92.944 54.8 91.792 54.8 90.52V85.912C54.8 84.568 55.172 83.344 55.916 82.24C56.684 81.112 57.704 80.236 58.976 79.612C60.248 78.988 61.616 78.676 63.08 78.676C64.52 78.676 65.84 78.976 67.04 79.576C68.264 80.152 69.224 80.98 69.92 82.06C70.616 83.116 70.964 84.316 70.964 85.66V87.604C70.964 88.18 70.748 88.672 70.316 89.08C69.884 89.464 69.332 89.656 68.66 89.656H59.588V90.16C59.588 91.12 59.876 91.912 60.452 92.536C61.052 93.136 61.928 93.436 63.08 93.436C64.208 93.436 65.036 93.196 65.564 92.716C66.092 92.212 66.356 91.588 66.356 90.844C66.836 90.796 67.196 90.772 67.436 90.772C68.42 90.772 69.176 90.976 69.704 91.384C70.232 91.792 70.496 92.392 70.496 93.184C70.496 93.832 70.172 94.48 69.524 95.128C68.876 95.776 67.976 96.304 66.824 96.712C65.696 97.12 64.436 97.324 63.044 97.324ZM66.5 86.164V85.66C66.5 84.7 66.176 83.944 65.528 83.392C64.904 82.816 64.076 82.528 63.044 82.528C62.012 82.528 61.172 82.816 60.524 83.392C59.9 83.944 59.588 84.7 59.588 85.66V86.164H66.5ZM75.8333 104.524C74.8253 104.524 74.0333 104.164 73.4573 103.444C72.8813 102.748 72.5933 101.716 72.5933 100.348C73.2893 100.492 73.9253 100.564 74.5013 100.564C75.1013 100.564 75.5933 100.468 75.9773 100.276C76.3613 100.108 76.7213 99.784 77.0573 99.304C77.4173 98.824 77.8133 98.104 78.2453 97.144L78.7853 95.92L71.8733 79.072C72.0413 78.952 72.3533 78.856 72.8093 78.784C73.2893 78.712 73.6853 78.676 73.9973 78.676C74.7413 78.676 75.4253 78.832 76.0493 79.144C76.6973 79.456 77.1293 79.9 77.3453 80.476L80.8733 89.872L80.2613 91.636L80.5853 91.744L84.9773 80.476C85.2173 79.876 85.6373 79.432 86.2373 79.144C86.8613 78.832 87.5573 78.676 88.3253 78.676C88.6373 78.676 89.0213 78.712 89.4773 78.784C89.9573 78.856 90.2813 78.952 90.4493 79.072L82.4213 98.584C81.5813 100.624 80.6453 102.124 79.6133 103.084C78.6053 104.044 77.3453 104.524 75.8333 104.524ZM99.3956 97.324C97.9076 97.324 96.5276 97.024 95.2556 96.424C94.0076 95.824 93.0116 95.008 92.2676 93.976C91.5236 92.944 91.1516 91.792 91.1516 90.52V85.912C91.1516 84.568 91.5236 83.344 92.2676 82.24C93.0356 81.112 94.0556 80.236 95.3276 79.612C96.5996 78.988 97.9676 78.676 99.4316 78.676C100.872 78.676 102.192 78.976 103.392 79.576C104.616 80.152 105.576 80.98 106.272 82.06C106.968 83.116 107.316 84.316 107.316 85.66V87.604C107.316 88.18 107.1 88.672 106.668 89.08C106.236 89.464 105.684 89.656 105.012 89.656H95.9396V90.16C95.9396 91.12 96.2276 91.912 96.8036 92.536C97.4036 93.136 98.2796 93.436 99.4316 93.436C100.56 93.436 101.388 93.196 101.916 92.716C102.444 92.212 102.708 91.588 102.708 90.844C103.188 90.796 103.548 90.772 103.788 90.772C104.772 90.772 105.528 90.976 106.056 91.384C106.584 91.792 106.848 92.392 106.848 93.184C106.848 93.832 106.524 94.48 105.876 95.128C105.228 95.776 104.328 96.304 103.176 96.712C102.048 97.12 100.788 97.324 99.3956 97.324ZM102.852 86.164V85.66C102.852 84.7 102.528 83.944 101.88 83.392C101.256 82.816 100.428 82.528 99.3956 82.528C98.3636 82.528 97.5236 82.816 96.8756 83.392C96.2516 83.944 95.9396 84.7 95.9396 85.66V86.164H102.852ZM112.938 97.324C111.69 97.324 110.658 96.868 109.842 95.956L118.338 84.04L110.238 72.484C110.526 72.172 110.922 71.932 111.426 71.764C111.954 71.572 112.494 71.476 113.046 71.476C113.814 71.476 114.522 71.608 115.17 71.872C115.842 72.112 116.298 72.424 116.538 72.808L120.966 79.72L119.922 81.196L120.318 81.484L126.042 72.808C126.282 72.424 126.726 72.112 127.374 71.872C128.046 71.608 128.766 71.476 129.534 71.476C130.086 71.476 130.614 71.572 131.118 71.764C131.646 71.932 132.054 72.172 132.342 72.484L124.242 84.04L132.738 95.956C131.922 96.868 130.89 97.324 129.642 97.324C128.322 97.324 127.338 96.856 126.69 95.92L121.29 87.892L115.89 95.92C115.602 96.352 115.194 96.7 114.666 96.964C114.138 97.204 113.562 97.324 112.938 97.324Z" fill="#23D300"/>
<defs>
<filter id="filter0_d_3_47" x="157" y="0" width="176.218" height="168" filterUnits="userSpaceOnUse" color-interpolation-filters="sRGB">
<feFlood flood-opacity="0" result="BackgroundImageFix"/>
<feColorMatrix in="SourceAlpha" type="matrix" values="0 0 0 0 0 0 0 0 0 0 0 0 0 0 0 0 0 0 127 0" result="hardAlpha"/>
<feOffset dy="4"/>
<feGaussianBlur stdDeviation="2"/>
<feComposite in2="hardAlpha" operator="out"/>
<feColorMatrix type="matrix" values="0 0 0 0 0 0 0 0 0 0 0 0 0 0 0 0 0 0 0.25 0"/>
<feBlend mode="normal" in2="BackgroundImageFix" result="effect1_dropShadow_3_47"/>
<feBlend mode="normal" in="SourceGraphic" in2="effect1_dropShadow_3_47" result="shape"/>
</filter>
<filter id="filter1_d_3_47" x="157" y="48.0059" width="45" height="82.9873" filterUnits="userSpaceOnUse" color-interpolation-filters="sRGB">
<feFlood flood-opacity="0" result="BackgroundImageFix"/>
<feColorMatrix in="SourceAlpha" type="matrix" values="0 0 0 0 0 0 0 0 0 0 0 0 0 0 0 0 0 0 127 0" result="hardAlpha"/>
<feOffset dy="4"/>
<feGaussianBlur stdDeviation="2"/>
<feComposite in2="hardAlpha" operator="out"/>
<feColorMatrix type="matrix" values="0 0 0 0 0 0 0 0 0 0 0 0 0 0 0 0 0 0 0.25 0"/>
<feBlend mode="normal" in2="BackgroundImageFix" result="effect1_dropShadow_3_47"/>
<feBlend mode="normal" in="SourceGraphic" in2="effect1_dropShadow_3_47" result="shape"/>
</filter>
<filter id="filter2_d_3_47" x="157" y="70" width="23" height="38" filterUnits="userSpaceOnUse" color-interpolation-filters="sRGB">
<feFlood flood-opacity="0" result="BackgroundImageFix"/>
<feColorMatrix in="SourceAlpha" type="matrix" values="0 0 0 0 0 0 0 0 0 0 0 0 0 0 0 0 0 0 127 0" result="hardAlpha"/>
<feOffset dy="4"/>
<feGaussianBlur stdDeviation="2"/>
<feComposite in2="hardAlpha" operator="out"/>
<feColorMatrix type="matrix" values="0 0 0 0 0 0 0 0 0 0 0 0 0 0 0 0 0 0 0.25 0"/>
<feBlend mode="normal" in2="BackgroundImageFix" result="effect1_dropShadow_3_47"/>
<feBlend mode="normal" in="SourceGraphic" in2="effect1_dropShadow_3_47" result="shape"/>
</filter>
<filter id="filter3_d_3_47" x="113" y="0" width="46" height="46" filterUnits="userSpaceOnUse" color-interpolation-filters="sRGB">
<feFlood flood-opacity="0" result="BackgroundImageFix"/>
<feColorMatrix in="SourceAlpha" type="matrix" values="0 0 0 0 0 0 0 0 0 0 0 0 0 0 0 0 0 0 127 0" result="hardAlpha"/>
<feOffset dy="4"/>
<feGaussianBlur stdDeviation="2"/>
<feComposite in2="hardAlpha" operator="out"/>
<feColorMatrix type="matrix" values="0 0 0 0 0 0 0 0 0 0 0 0 0 0 0 0 0 0 0.25 0"/>
<feBlend mode="normal" in2="BackgroundImageFix" result="effect1_dropShadow_3_47"/>
<feBlend mode="normal" in="SourceGraphic" in2="effect1_dropShadow_3_47" result="shape"/>
</filter>
<filter id="filter4_d_3_47" x="76" y="18" width="39" height="50" filterUnits="userSpaceOnUse" color-interpolation-filters="sRGB">
<feFlood flood-opacity="0" result="BackgroundImageFix"/>
<feColorMatrix in="SourceAlpha" type="matrix" values="0 0 0 0 0 0 0 0 0 0 0 0 0 0 0 0 0 0 127 0" result="hardAlpha"/>
<feOffset dy="4"/>
<feGaussianBlur stdDeviation="2"/>
<feComposite in2="hardAlpha" operator="out"/>
<feColorMatrix type="matrix" values="0 0 0 0 0 0 0 0 0 0 0 0 0 0 0 0 0 0 0.25 0"/>
<feBlend mode="normal" in2="BackgroundImageFix" result="effect1_dropShadow_3_47"/>
<feBlend mode="normal" in="SourceGraphic" in2="effect1_dropShadow_3_47" result="shape"/>
</filter>
<filter id="filter5_d_3_47" x="103" y="108" width="56" height="60" filterUnits="userSpaceOnUse" color-interpolation-filters="sRGB">
<feFlood flood-opacity="0" result="BackgroundImageFix"/>
<feColorMatrix in="SourceAlpha" type="matrix" values="0 0 0 0 0 0 0 0 0 0 0 0 0 0 0 0 0 0 127 0" result="hardAlpha"/>
<feOffset dy="4"/>
<feGaussianBlur stdDeviation="2"/>
<feComposite in2="hardAlpha" operator="out"/>
<feColorMatrix type="matrix" values="0 0 0 0 0 0 0 0 0 0 0 0 0 0 0 0 0 0 0.25 0"/>
<feBlend mode="normal" in2="BackgroundImageFix" result="effect1_dropShadow_3_47"/>
<feBlend mode="normal" in="SourceGraphic" in2="effect1_dropShadow_3_47" result="shape"/>
</filter>
<filter id="filter6_d_3_47" x="73" y="108" width="32" height="43" filterUnits="userSpaceOnUse" color-interpolation-filters="sRGB">
<feFlood flood-opacity="0" result="BackgroundImageFix"/>
<feColorMatrix in="SourceAlpha" type="matrix" values="0 0 0 0 0 0 0 0 0 0 0 0 0 0 0 0 0 0 127 0" result="hardAlpha"/>
<feOffset dy="4"/>
<feGaussianBlur stdDeviation="2"/>
<feComposite in2="hardAlpha" operator="out"/>
<feColorMatrix type="matrix" values="0 0 0 0 0 0 0 0 0 0 0 0 0 0 0 0 0 0 0.25 0"/>
<feBlend mode="normal" in2="BackgroundImageFix" result="effect1_dropShadow_3_47"/>
<feBlend mode="normal" in="SourceGraphic" in2="effect1_dropShadow_3_47" result="shape"/>
</filter>
<filter id="filter7_d_3_47" x="36" y="29" width="39" height="43" filterUnits="userSpaceOnUse" color-interpolation-filters="sRGB">
<feFlood flood-opacity="0" result="BackgroundImageFix"/>
<feColorMatrix in="SourceAlpha" type="matrix" values="0 0 0 0 0 0 0 0 0 0 0 0 0 0 0 0 0 0 127 0" result="hardAlpha"/>
<feOffset dy="4"/>
<feGaussianBlur stdDeviation="2"/>
<feComposite in2="hardAlpha" operator="out"/>
<feColorMatrix type="matrix" values="0 0 0 0 0 0 0 0 0 0 0 0 0 0 0 0 0 0 0.25 0"/>
<feBlend mode="normal" in2="BackgroundImageFix" result="effect1_dropShadow_3_47"/>
<feBlend mode="normal" in="SourceGraphic" in2="effect1_dropShadow_3_47" result="shape"/>
</filter>
<filter id="filter8_d_3_47" x="36" y="105" width="39" height="26" filterUnits="userSpaceOnUse" color-interpolation-filters="sRGB">
<feFlood flood-opacity="0" result="BackgroundImageFix"/>
<feColorMatrix in="SourceAlpha" type="matrix" values="0 0 0 0 0 0 0 0 0 0 0 0 0 0 0 0 0 0 127 0" result="hardAlpha"/>
<feOffset dy="4"/>
<feGaussianBlur stdDeviation="2"/>
<feComposite in2="hardAlpha" operator="out"/>
<feColorMatrix type="matrix" values="0 0 0 0 0 0 0 0 0 0 0 0 0 0 0 0 0 0 0.25 0"/>
<feBlend mode="normal" in2="BackgroundImageFix" result="effect1_dropShadow_3_47"/>
<feBlend mode="normal" in="SourceGraphic" in2="effect1_dropShadow_3_47" result="shape"/>
</filter>
<filter id="filter9_d_3_47" x="18" y="105" width="21" height="26" filterUnits="userSpaceOnUse" color-interpolation-filters="sRGB">
<feFlood flood-opacity="0" result="BackgroundImageFix"/>
<feColorMatrix in="SourceAlpha" type="matrix" values="0 0 0 0 0 0 0 0 0 0 0 0 0 0 0 0 0 0 127 0" result="hardAlpha"/>
<feOffset dy="4"/>
<feGaussianBlur stdDeviation="2"/>
<feComposite in2="hardAlpha" operator="out"/>
<feColorMatrix type="matrix" values="0 0 0 0 0 0 0 0 0 0 0 0 0 0 0 0 0 0 0.25 0"/>
<feBlend mode="normal" in2="BackgroundImageFix" result="effect1_dropShadow_3_47"/>
<feBlend mode="normal" in="SourceGraphic" in2="effect1_dropShadow_3_47" result="shape"/>
</filter>
<filter id="filter10_d_3_47" x="0" y="76" width="21" height="26" filterUnits="userSpaceOnUse" color-interpolation-filters="sRGB">
<feFlood flood-opacity="0" result="BackgroundImageFix"/>
<feColorMatrix in="SourceAlpha" type="matrix" values="0 0 0 0 0 0 0 0 0 0 0 0 0 0 0 0 0 0 127 0" result="hardAlpha"/>
<feOffset dy="4"/>
<feGaussianBlur stdDeviation="2"/>
<feComposite in2="hardAlpha" operator="out"/>
<feColorMatrix type="matrix" values="0 0 0 0 0 0 0 0 0 0 0 0 0 0 0 0 0 0 0.25 0"/>
<feBlend mode="normal" in2="BackgroundImageFix" result="effect1_dropShadow_3_47"/>
<feBlend mode="normal" in="SourceGraphic" in2="effect1_dropShadow_3_47" result="shape"/>
</filter>
<filter id="filter11_d_3_47" x="18" y="48" width="21" height="54" filterUnits="userSpaceOnUse" color-interpolation-filters="sRGB">
<feFlood flood-opacity="0" result="BackgroundImageFix"/>
<feColorMatrix in="SourceAlpha" type="matrix" values="0 0 0 0 0 0 0 0 0 0 0 0 0 0 0 0 0 0 127 0" result="hardAlpha"/>
<feOffset dy="4"/>
<feGaussianBlur stdDeviation="2"/>
<feComposite in2="hardAlpha" operator="out"/>
<feColorMatrix type="matrix" values="0 0 0 0 0 0 0 0 0 0 0 0 0 0 0 0 0 0 0.25 0"/>
<feBlend mode="normal" in2="BackgroundImageFix" result="effect1_dropShadow_3_47"/>
<feBlend mode="normal" in="SourceGraphic" in2="effect1_dropShadow_3_47" result="shape"/>
</filter>
<filter id="filter12_d_3_47" x="113" y="48" width="46" height="20" filterUnits="userSpaceOnUse" color-interpolation-filters="sRGB">
<feFlood flood-opacity="0" result="BackgroundImageFix"/>
<feColorMatrix in="SourceAlpha" type="matrix" values="0 0 0 0 0 0 0 0 0 0 0 0 0 0 0 0 0 0 127 0" result="hardAlpha"/>
<feOffset dy="4"/>
<feGaussianBlur stdDeviation="2"/>
<feComposite in2="hardAlpha" operator="out"/>
<feColorMatrix type="matrix" values="0 0 0 0 0 0 0 0 0 0 0 0 0 0 0 0 0 0 0.25 0"/>
<feBlend mode="normal" in2="BackgroundImageFix" result="effect1_dropShadow_3_47"/>
<feBlend mode="normal" in="SourceGraphic" in2="effect1_dropShadow_3_47" result="shape"/>
</filter>
</defs>
</svg>
